<svg width="210" height="95" viewBox="0 0 210 95" fill="none" xmlns="http://www.w3.org/2000/svg">
<path d="M120.356 34.1113C123.286 34.0951 126.582 34.738 130.244 36.04L128.706 41.8994C125.304 40.695 122.537 40.0928 120.405 40.0928C118.68 40.0928 117.321 40.4346 116.328 41.1182C115.335 41.8018 114.839 42.7295 114.839 43.9014C114.839 45.1709 115.295 46.18 116.206 46.9287C117.134 47.6774 118.818 48.3691 121.26 49.0039C124.857 49.9316 127.412 51.2174 128.926 52.8613C130.439 54.4889 131.196 56.735 131.196 59.5996C131.196 63.0664 130.024 65.7275 127.681 67.583C125.353 69.4222 122.025 70.3418 117.695 70.3418C114.163 70.3418 110.379 69.5443 106.343 67.9492L108.149 62.2607C110.379 63.0583 112.202 63.6198 113.618 63.9453C115.034 64.2546 116.377 64.4092 117.646 64.4092C119.486 64.4092 120.902 64.0186 121.895 63.2373C122.904 62.4398 123.408 61.3411 123.408 59.9414C123.408 59.0462 123.197 58.2975 122.773 57.6953C122.35 57.0931 121.634 56.556 120.625 56.084C119.616 55.5957 118.159 55.1156 116.255 54.6436C113.081 53.8786 110.762 52.6904 109.297 51.0791C107.832 49.4678 107.1 47.3438 107.1 44.707C107.1 41.3379 108.255 38.7337 110.566 36.8945C112.894 35.0391 116.157 34.1113 120.356 34.1113ZM164.082 67.8027C162.21 68.6328 160.216 69.2757 158.101 69.7314C155.985 70.1709 153.91 70.3906 151.875 70.3906C146.374 70.3906 142.118 68.82 139.106 65.6787C136.095 62.5212 134.59 58.0615 134.59 52.2998C134.59 46.5055 136.144 42.0296 139.253 38.8721C142.378 35.6982 146.789 34.1113 152.485 34.1113C154.487 34.1113 156.489 34.3555 158.491 34.8438C160.493 35.3158 162.292 35.9831 163.887 36.8457L161.641 42.2412C159.948 41.5413 158.467 41.0368 157.197 40.7275C155.928 40.402 154.658 40.2393 153.389 40.2393C149.792 40.2393 147.065 41.2484 145.21 43.2666C143.354 45.2848 142.427 48.2471 142.427 52.1533C142.427 56.027 143.281 59.0299 144.99 61.1621C146.715 63.2943 149.149 64.3604 152.29 64.3604C153.885 64.3604 155.448 64.1406 156.978 63.7012V52.0068H164.082V67.8027ZM192.671 70H170.479V34.5508H177.778V64.1895H192.671V70Z" fill="black"/>
<rect width="9.49784" height="89.4529" rx="4.74892" transform="matrix(-0.961838 -0.273619 0.422151 -0.906526 9.13538 83.6901)" fill="#01080E"/>
<rect width="9.49784" height="89.4529" rx="4.74892" transform="matrix(-0.961838 -0.273619 0.422151 -0.906526 65.2374 94.48)" fill="#01080E"/>
<rect width="9.49784" height="67.4738" rx="4.74892" transform="matrix(-0.961838 -0.273619 0.422151 -0.906526 28.9309 75.1896)" fill="#FCBA03"/>
<rect width="9.49784" height="89.4529" rx="4.74892" transform="matrix(-0.961838 -0.273619 0.422151 -0.906526 37.9788 89.7687)" fill="#01080E"/>
<rect width="9.49784" height="68.6491" rx="4.74892" transform="matrix(-0.961838 -0.273619 0.422151 -0.906526 56.6685 83.6431)" fill="#FCBA03"/>
</svg>
